<?xml version="1.0" encoding="UTF-8"?>
<!DOCTYPE svg PUBLIC "-//W3C//DTD SVG 1.1//EN" "http://www.w3.org/Graphics/SVG/1.1/DTD/svg11.dtd">
<svg xmlns="http://www.w3.org/2000/svg" xmlns:xlink="http://www.w3.org/1999/xlink" version="1.1" width="127px" height="127px" viewBox="-0.5 -0.5 127 127" style="background-color: rgb(255, 255, 255);"><defs/><g><rect x="0" y="0" width="126" height="126" fill="none" stroke="none" pointer-events="all"/><path d="M 5.73 63 C 5.73 31.42 31.42 5.73 63 5.73 C 94.58 5.73 120.27 31.42 120.27 63 C 120.27 94.58 94.58 120.27 63 120.27 C 31.42 120.27 5.73 94.58 5.73 63 Z M 0 63 C 0 97.74 28.26 126 63 126 C 97.74 126 126 97.74 126 63 C 126 28.26 97.74 0 63 0 C 28.26 0 0 28.26 0 63 Z M 43.62 95.21 L 28.29 95.21 L 46.45 57.16 L 54.13 73 Z M 49.01 49.3 C 48.53 48.31 47.53 47.68 46.43 47.68 L 46.42 47.68 C 45.32 47.69 44.32 48.32 43.85 49.32 L 21.16 96.84 C 20.74 97.73 20.8 98.77 21.32 99.61 C 21.85 100.44 22.76 100.94 23.75 100.94 L 45.43 100.94 C 46.54 100.94 47.55 100.3 48.02 99.3 L 59.9 74.21 C 60.27 73.43 60.27 72.52 59.88 71.73 Z M 97.72 95.21 L 82.11 95.21 L 53.73 34.23 C 53.26 33.22 52.25 32.57 51.13 32.57 L 40.82 32.57 L 40.83 20.77 L 61.5 20.77 L 89.74 81.74 C 90.21 82.76 91.23 83.41 92.34 83.41 L 97.72 83.41 Z M 94.17 77.67 L 65.93 16.7 C 65.45 15.68 64.44 15.03 63.32 15.03 L 37.96 15.03 C 36.38 15.03 35.1 16.31 35.1 17.9 L 35.08 35.43 C 35.08 36.2 35.38 36.92 35.92 37.46 C 36.46 38 37.18 38.3 37.95 38.3 L 49.31 38.3 L 77.69 99.29 C 78.16 100.3 79.17 100.94 80.28 100.94 L 100.58 100.94 C 102.17 100.94 103.45 99.66 103.45 98.08 L 103.45 80.54 C 103.45 78.95 102.17 77.67 100.58 77.67 Z" fill="#d45b07" stroke="none" pointer-events="all"/></g></svg>