<?xml version="1.0" encoding="UTF-8"?>
<!DOCTYPE svg PUBLIC "-//W3C//DTD SVG 1.1//EN" "http://www.w3.org/Graphics/SVG/1.1/DTD/svg11.dtd">
<svg xmlns="http://www.w3.org/2000/svg" xmlns:xlink="http://www.w3.org/1999/xlink" version="1.1" width="79px" height="79px" viewBox="-0.5 -0.5 79 79" style="background-color: rgb(255, 255, 255);"><defs/><g><rect x="0" y="0" width="78" height="78" fill="none" stroke="none" pointer-events="all"/><path d="M 58.82 25.39 L 62.8 10.91 L 64.96 10.91 C 65.93 10.91 66.72 10.12 66.72 9.15 L 66.72 2.13 C 66.72 1.16 65.93 0.37 64.96 0.37 L 57.94 0.37 C 56.97 0.37 56.18 1.16 56.18 2.13 L 56.18 9.15 C 56.18 10.12 56.97 10.91 57.94 10.91 L 59.16 10.91 L 55.44 24.46 Z M 59.69 7.4 L 59.69 3.89 L 63.2 3.89 L 63.2 7.4 Z M 15.8 47.78 C 15.8 46.81 15.02 46.02 14.05 46.02 L 12.66 46.02 L 16.91 35.49 L 19.31 35.49 C 20.28 35.49 21.07 34.7 21.07 33.73 L 21.07 27.16 L 34.98 10.91 L 38.63 10.91 C 39.6 10.91 40.38 10.12 40.38 9.15 L 40.38 2.13 C 40.38 1.16 39.6 0.37 38.63 0.37 L 31.6 0.37 C 30.63 0.37 29.85 1.16 29.85 2.13 L 29.85 9.15 C 29.85 9.76 30.17 10.27 30.64 10.58 L 18.33 24.95 L 13.65 24.95 L 8.17 10.91 L 8.78 10.91 C 9.75 10.91 10.53 10.12 10.53 9.15 L 10.53 2.13 C 10.53 1.16 9.75 0.37 8.78 0.37 L 1.76 0.37 C 0.78 0.37 0 1.16 0 2.13 L 0 9.15 C 0 10.12 0.78 10.91 1.76 10.91 L 4.4 10.91 L 10.54 26.66 C 10.54 26.68 10.53 26.69 10.53 26.71 L 10.53 33.73 C 10.53 34.7 11.32 35.49 12.29 35.49 L 13.12 35.49 L 8.88 46.02 L 7.02 46.02 C 6.05 46.02 5.27 46.81 5.27 47.78 L 5.27 54.8 C 5.27 55.77 6.05 56.56 7.02 56.56 L 10.57 56.56 L 17.57 67.02 C 17.57 67.05 17.56 67.07 17.56 67.09 L 17.56 74.11 C 17.56 75.08 18.34 75.87 19.31 75.87 L 26.34 75.87 C 27.31 75.87 28.09 75.08 28.09 74.11 L 28.09 67.09 C 28.09 66.12 27.31 65.34 26.34 65.34 L 20.67 65.34 L 14.71 56.42 C 15.35 56.16 15.8 55.54 15.8 54.8 L 15.8 53.05 L 31.6 53.05 L 31.6 49.53 L 15.8 49.53 Z M 3.51 7.4 L 3.51 3.89 L 7.02 3.89 L 7.02 7.4 Z M 33.36 7.4 L 33.36 3.89 L 36.87 3.89 L 36.87 7.4 Z M 14.05 31.98 L 14.05 28.47 L 17.56 28.47 L 17.56 31.98 Z M 8.78 53.05 L 8.78 49.53 L 12.29 49.53 L 12.29 53.05 Z M 21.07 72.36 L 21.07 68.85 L 24.58 68.85 L 24.58 72.36 Z M 72 53.08 C 72.57 52.49 73.11 51.9 73.6 51.31 C 78 46 77.64 42.67 76.56 40.8 C 75.49 38.94 72.78 36.96 65.98 38.12 C 65.23 38.25 64.45 38.42 63.65 38.62 C 63.33 37.53 62.99 36.49 62.6 35.53 L 59.35 36.85 C 59.69 37.7 60 38.63 60.28 39.61 C 58.66 40.16 56.99 40.84 55.3 41.61 C 53.62 40.84 51.96 40.16 50.34 39.61 C 51.74 34.8 53.73 32.04 55.3 32.04 C 56.15 32.04 56.96 32.83 57.48 33.49 L 60.23 31.3 C 58.4 29.01 56.54 28.53 55.3 28.53 C 51.48 28.53 48.67 32.76 46.98 38.63 C 46.18 38.43 45.39 38.25 44.63 38.12 C 37.84 36.96 35.12 38.94 34.04 40.8 C 32.97 42.67 32.61 46 37.01 51.31 C 37.5 51.9 38.04 52.49 38.61 53.08 C 38.07 53.64 37.54 54.21 37.07 54.77 L 39.77 57.02 C 40.19 56.51 40.66 56.01 41.15 55.5 C 42.44 56.63 43.87 57.74 45.39 58.82 C 45.57 60.63 45.82 62.42 46.15 64.12 C 45.43 64.3 44.72 64.46 44.03 64.58 C 39.76 65.3 37.64 64.55 37.09 63.6 C 36.57 62.7 37.11 61.24 37.48 60.46 L 34.3 58.97 C 32.84 62.08 33.35 64.16 34.04 65.35 C 34.9 66.83 36.78 68.38 40.91 68.38 C 41.99 68.38 43.22 68.28 44.63 68.04 C 45.39 67.91 46.18 67.73 46.99 67.53 C 48.67 73.39 51.48 77.63 55.3 77.63 C 59.13 77.63 61.93 73.39 63.62 67.53 C 64.75 67.81 65.84 68.03 66.89 68.17 L 67.36 64.69 C 66.44 64.57 65.46 64.37 64.46 64.11 C 64.79 62.41 65.04 60.63 65.22 58.82 C 66.74 57.74 68.17 56.63 69.46 55.5 C 69.97 56.03 70.46 56.56 70.9 57.09 C 73.67 60.43 74.07 62.64 73.52 63.6 C 73.09 64.35 71.97 64.65 71.1 64.77 L 71.59 68.25 C 74.56 67.83 75.93 66.44 76.56 65.35 C 77.64 63.49 78 60.15 73.6 54.85 C 73.11 54.26 72.57 53.67 72 53.08 Z M 66.57 41.58 C 70.86 40.85 72.98 41.61 73.52 42.56 C 74.07 43.51 73.67 45.72 70.9 49.07 C 70.46 49.59 69.97 50.12 69.46 50.65 C 68.17 49.53 66.75 48.42 65.23 47.35 C 65.06 45.49 64.81 43.71 64.48 42.03 C 65.19 41.85 65.9 41.69 66.57 41.58 Z M 61.09 43.05 C 61.2 43.63 61.3 44.23 61.39 44.84 C 61.06 44.64 60.74 44.44 60.4 44.24 C 60.06 44.05 59.72 43.87 59.38 43.68 C 59.96 43.45 60.52 43.24 61.09 43.05 Z M 61.99 53.08 C 61.99 54.39 61.94 55.65 61.86 56.87 C 60.83 57.55 59.76 58.22 58.65 58.87 C 57.54 59.51 56.42 60.1 55.31 60.65 C 54.19 60.1 53.07 59.51 51.96 58.87 C 50.85 58.22 49.78 57.55 48.75 56.87 C 48.67 55.65 48.62 54.39 48.62 53.08 C 48.62 51.76 48.67 50.5 48.75 49.29 C 49.78 48.6 50.85 47.93 51.96 47.29 C 53.08 46.64 54.19 46.05 55.3 45.5 C 56.42 46.05 57.53 46.64 58.65 47.29 C 59.76 47.93 60.83 48.6 61.86 49.28 C 61.94 50.53 61.99 51.79 61.99 53.08 Z M 51.23 43.68 C 50.89 43.87 50.54 44.05 50.21 44.24 C 49.87 44.44 49.54 44.64 49.21 44.84 C 49.31 44.22 49.41 43.62 49.52 43.05 C 50.08 43.24 50.65 43.45 51.23 43.68 Z M 37.09 42.56 C 37.64 41.6 39.76 40.85 44.03 41.58 C 44.72 41.69 45.43 41.85 46.15 42.03 C 45.82 43.74 45.57 45.52 45.39 47.34 C 43.87 48.41 42.44 49.52 41.15 50.65 C 40.64 50.12 40.15 49.59 39.71 49.07 C 36.94 45.72 36.54 43.51 37.09 42.56 Z M 43.72 53.08 C 44.17 52.68 44.64 52.29 45.13 51.91 C 45.12 52.3 45.11 52.69 45.11 53.08 C 45.11 53.47 45.12 53.86 45.13 54.25 C 44.64 53.86 44.17 53.47 43.72 53.08 Z M 49.21 61.31 C 49.54 61.51 49.87 61.71 50.21 61.91 C 50.55 62.11 50.89 62.29 51.23 62.48 C 50.66 62.7 50.08 62.91 49.52 63.11 C 49.41 62.53 49.31 61.93 49.21 61.31 Z M 55.3 74.11 C 53.73 74.11 51.74 71.35 50.34 66.54 C 51.96 65.99 53.62 65.31 55.3 64.54 C 56.99 65.32 58.65 65.98 60.27 66.54 C 58.87 71.35 56.88 74.11 55.3 74.11 Z M 61.09 63.1 C 60.53 62.9 59.97 62.69 59.39 62.47 C 59.73 62.28 60.07 62.1 60.4 61.91 C 60.74 61.71 61.06 61.51 61.39 61.31 C 61.3 61.93 61.2 62.52 61.09 63.1 Z M 65.48 51.91 C 65.97 52.29 66.44 52.68 66.89 53.08 C 66.44 53.47 65.97 53.86 65.48 54.25 C 65.49 53.86 65.5 53.47 65.5 53.08 C 65.5 52.68 65.49 52.3 65.48 51.91 Z" fill="#d45b07" stroke="none" pointer-events="all"/></g></svg>