<?xml version="1.0" encoding="UTF-8"?>
<!DOCTYPE svg PUBLIC "-//W3C//DTD SVG 1.1//EN" "http://www.w3.org/Graphics/SVG/1.1/DTD/svg11.dtd">
<svg xmlns="http://www.w3.org/2000/svg" xmlns:xlink="http://www.w3.org/1999/xlink" version="1.1" width="139px" height="139px" viewBox="-0.5 -0.5 139 139" style="background-color: rgb(255, 255, 255);"><defs><linearGradient x1="0%" y1="100%" x2="0%" y2="0%" id="mx-gradient-4d72f3-1-3334b9-1-s-0"><stop offset="0%" style="stop-color: rgb(51, 52, 185); stop-opacity: 1;"/><stop offset="100%" style="stop-color: rgb(77, 114, 243); stop-opacity: 1;"/></linearGradient></defs><g><path d="M 0 0 L 138 0 L 138 138 L 0 138 Z" fill="url(#mx-gradient-4d72f3-1-3334b9-1-s-0)" stroke="none" pointer-events="all"/><path d="M 92.75 98.28 C 86.17 103.6 72.36 106.41 59.15 106.41 C 45.94 106.41 32.13 103.59 25.55 98.27 L 25.55 108.99 L 25.55 108.99 C 25.55 114.33 39.35 120.29 59.15 120.29 C 78.94 120.29 92.73 114.34 92.75 109 Z M 92.75 77.91 L 96.7 77.89 L 96.7 77.91 C 96.7 80.3 95.5 82.52 93.18 84.56 C 96 87.03 96.7 89.46 96.7 91.19 C 96.7 91.21 96.69 91.22 96.69 91.23 L 96.69 108.99 L 96.7 108.99 C 96.7 118.87 77.35 124.2 59.15 124.2 C 41 124.2 21.71 118.89 21.62 109.06 C 21.62 109.05 21.61 109.04 21.61 109.03 L 21.61 91.19 C 21.61 91.18 21.61 91.18 21.61 91.17 C 21.62 89.44 22.32 87.02 25.13 84.55 C 22.34 82.08 21.63 79.68 21.61 77.96 L 21.61 77.96 C 21.61 77.95 21.61 77.94 21.61 77.94 L 21.61 60.1 C 21.61 60.09 21.61 60.09 21.61 60.08 C 21.62 58.35 22.32 55.93 25.13 53.46 C 22.34 50.99 21.63 48.58 21.61 46.87 L 21.61 46.87 C 21.61 46.86 21.61 46.85 21.61 46.84 L 21.61 29.01 C 21.61 29 21.61 28.99 21.61 28.99 C 21.65 19.12 40.97 13.8 59.15 13.8 C 69.43 13.8 79.3 15.43 86.23 18.28 L 84.72 21.89 C 78.25 19.24 68.93 17.71 59.15 17.71 C 39.35 17.71 25.55 23.67 25.55 29.01 C 25.55 34.36 39.35 40.32 59.15 40.32 C 59.69 40.32 60.21 40.32 60.74 40.3 L 60.9 44.2 C 60.32 44.23 59.74 44.23 59.15 44.23 C 45.94 44.23 32.13 41.41 25.55 36.09 L 25.55 46.8 L 25.55 46.8 L 25.55 46.85 C 25.57 48.9 27.68 50.69 29.44 51.83 C 34.74 55.21 44.25 57.52 54.84 58 L 54.66 61.9 C 43.93 61.42 34.53 59.19 28.48 55.78 C 26.99 56.89 25.55 58.4 25.55 60.11 C 25.55 65.45 39.35 71.41 59.15 71.41 C 61.1 71.41 63.02 71.34 64.89 71.21 L 65.16 75.12 C 63.21 75.25 61.19 75.32 59.15 75.32 C 45.94 75.32 32.13 72.51 25.55 67.18 L 25.55 77.89 L 25.55 77.89 C 25.57 79.99 27.68 81.78 29.44 82.92 C 35.5 86.79 46.89 89.2 59.15 89.2 L 60.02 89.2 L 60.02 93.11 L 59.15 93.11 C 46.7 93.11 35.37 90.8 28.45 86.89 C 26.97 88 25.55 89.5 25.55 91.19 C 25.55 96.54 39.35 102.5 59.15 102.5 C 78.94 102.5 92.73 96.55 92.75 91.21 L 92.75 91.19 L 92.75 91.19 C 92.75 89.49 91.33 87.99 89.84 86.87 C 88.88 87.42 87.85 87.95 86.67 88.43 L 85.16 84.81 C 86.6 84.23 87.84 83.59 88.86 82.92 C 90.64 81.76 92.75 79.95 92.75 77.91 Z M 109.64 49.32 L 98.59 49.32 C 97.94 49.32 97.33 49 96.96 48.46 C 96.59 47.93 96.52 47.24 96.76 46.64 L 103.48 29.84 L 78.03 29.84 L 66.2 53.31 L 78.78 53.31 C 79.41 53.31 80 53.61 80.38 54.11 C 80.74 54.61 80.85 55.26 80.66 55.86 L 69.43 90.86 Z M 115.69 48.72 L 66.41 99.64 C 66.02 100.03 65.51 100.24 64.98 100.24 C 64.64 100.24 64.29 100.15 63.98 99.96 C 63.19 99.5 62.83 98.56 63.1 97.69 L 76.09 57.22 L 63.01 57.22 C 62.33 57.22 61.69 56.87 61.33 56.29 C 60.98 55.71 60.94 54.99 61.25 54.39 L 75.05 27.01 C 75.38 26.35 76.06 25.93 76.81 25.93 L 106.38 25.93 C 107.04 25.93 107.65 26.26 108.01 26.79 C 108.38 27.33 108.46 28.01 108.22 28.61 L 101.5 45.41 L 114.27 45.41 C 115.06 45.41 115.77 45.88 116.08 46.6 C 116.39 47.32 116.24 48.15 115.69 48.72 Z M 28.42 109.76 C 31.21 111.33 34.73 112.66 38.87 113.69 L 39.84 109.9 C 36.09 108.96 32.82 107.74 30.37 106.36 Z M 38.87 82.4 L 39.84 78.61 C 36.09 77.68 32.82 76.45 30.37 75.07 L 28.42 78.47 C 31.21 80.05 34.73 81.37 38.87 82.4 Z M 28.42 47.19 L 30.37 43.79 C 32.82 45.17 36.09 46.39 39.84 47.33 L 38.87 51.12 C 34.73 50.08 31.21 48.76 28.42 47.19 Z" fill="#ffffff" stroke="none" pointer-events="all"/></g></svg>