<?xml version="1.0" encoding="UTF-8"?>
<!DOCTYPE svg PUBLIC "-//W3C//DTD SVG 1.1//EN" "http://www.w3.org/Graphics/SVG/1.1/DTD/svg11.dtd">
<svg xmlns="http://www.w3.org/2000/svg" xmlns:xlink="http://www.w3.org/1999/xlink" version="1.1" width="121px" height="121px" viewBox="-0.5 -0.5 121 121" style="background-color: rgb(255, 255, 255);"><defs/><g><rect x="0" y="0" width="120" height="120" fill="none" stroke="none" pointer-events="all"/><path d="M 76.24 75.58 C 76.24 76.9 75.16 77.97 73.85 77.97 C 72.53 77.97 71.46 76.9 71.46 75.58 C 71.46 74.27 72.53 73.2 73.85 73.2 C 75.16 73.2 76.24 74.27 76.24 75.58 Z M 84.05 26.96 C 82.73 26.96 81.66 25.89 81.66 24.57 C 81.66 23.25 82.73 22.18 84.05 22.18 C 85.37 22.18 86.44 23.25 86.44 24.57 C 86.44 25.89 85.37 26.96 84.05 26.96 Z M 74.78 50.81 C 74.78 52.12 73.71 53.2 72.39 53.2 C 71.07 53.2 70 52.12 70 50.81 C 70 49.49 71.07 48.42 72.39 48.42 C 73.71 48.42 74.78 49.49 74.78 50.81 Z M 87.49 93.08 C 87.49 91.76 88.56 90.68 89.88 90.68 C 91.2 90.68 92.27 91.76 92.27 93.08 C 92.27 94.39 91.2 95.46 89.88 95.46 C 88.56 95.46 87.49 94.39 87.49 93.08 Z M 99.48 79.58 C 98.63 80.05 98.1 80.96 98.1 81.94 L 98.1 98.72 L 78.74 110.17 L 78.74 96.52 L 82.9 96.52 C 84.18 99.09 86.81 100.89 89.88 100.89 C 94.19 100.89 97.69 97.38 97.69 93.08 C 97.69 88.77 94.19 85.26 89.88 85.26 C 86.26 85.26 83.24 87.75 82.35 91.09 L 76.03 91.09 C 74.53 91.09 73.32 92.31 73.32 93.81 L 73.32 113.37 L 72.22 114.02 L 62.71 108.51 L 62.71 38.21 L 70.41 38.21 L 70.41 43.28 C 67.06 44.16 64.58 47.19 64.58 50.81 C 64.58 55.11 68.08 58.62 72.39 58.62 C 76.7 58.62 80.2 55.11 80.2 50.81 C 80.2 47.74 78.41 45.11 75.83 43.83 L 75.83 38.21 L 84.78 38.21 C 86.27 38.21 87.49 37 87.49 35.5 L 87.49 31.55 C 90.07 30.27 91.86 27.64 91.86 24.57 C 91.86 20.26 88.36 16.76 84.05 16.76 C 79.74 16.76 76.24 20.26 76.24 24.57 C 76.24 28.19 78.72 31.21 82.06 32.1 L 82.06 32.79 L 62.71 32.79 L 62.71 13.16 L 74.64 6.02 L 99.56 21.21 L 99.56 37.92 C 99.56 38.9 100.08 39.8 100.93 40.28 L 114.13 47.76 L 114.13 56.11 L 89.15 56.11 C 87.65 56.11 86.44 57.32 86.44 58.82 L 86.44 72.14 L 80.83 72.14 C 79.55 69.56 76.92 67.77 73.85 67.77 C 69.54 67.77 66.03 71.28 66.03 75.58 C 66.03 79.89 69.54 83.4 73.85 83.4 C 77.47 83.4 80.49 80.91 81.37 77.57 L 89.15 77.57 C 90.65 77.57 91.86 76.35 91.86 74.85 L 91.86 61.53 L 114.13 61.53 L 114.13 71.33 Z M 41.78 71.74 C 43.1 71.74 44.17 72.81 44.17 74.13 C 44.17 75.45 43.1 76.52 41.78 76.52 C 40.46 76.52 39.39 75.45 39.39 74.13 C 39.39 72.81 40.46 71.74 41.78 71.74 Z M 37.93 28.94 C 37.93 27.63 39.01 26.55 40.32 26.55 C 41.64 26.55 42.71 27.63 42.71 28.94 C 42.71 30.26 41.64 31.34 40.32 31.34 C 39.01 31.34 37.93 30.26 37.93 28.94 Z M 28.14 50.81 C 28.14 52.12 27.06 53.2 25.75 53.2 C 24.43 53.2 23.36 52.12 23.36 50.81 C 23.36 49.49 24.43 48.42 25.75 48.42 C 27.06 48.42 28.14 49.49 28.14 50.81 Z M 42.3 97.45 C 42.3 96.13 43.38 95.06 44.69 95.06 C 46.01 95.06 47.09 96.13 47.09 97.45 C 47.09 98.77 46.01 99.84 44.69 99.84 C 43.38 99.84 42.3 98.77 42.3 97.45 Z M 46.29 114.01 L 20.44 98.72 L 20.44 81.94 C 20.44 80.95 19.91 80.04 19.04 79.56 L 18.07 79.03 L 25.22 79.03 L 25.22 98.18 C 25.22 99.67 26.43 100.89 27.93 100.89 L 37.72 100.89 C 38.99 103.46 41.63 105.26 44.69 105.26 C 49 105.26 52.51 101.75 52.51 97.45 C 52.51 93.14 49 89.64 44.69 89.64 C 41.08 89.64 38.05 92.12 37.17 95.46 L 30.65 95.46 L 30.65 76.32 C 30.65 74.82 29.43 73.6 27.93 73.6 L 8.21 73.6 L 5.87 72.32 L 5.87 47.76 L 19.07 40.28 C 19.92 39.79 20.44 38.89 20.44 37.92 L 20.44 30.92 L 23.76 30.92 L 23.76 43.28 C 20.42 44.16 17.94 47.19 17.94 50.81 C 17.94 55.11 21.44 58.62 25.75 58.62 C 30.05 58.62 33.56 55.11 33.56 50.81 C 33.56 47.74 31.77 45.11 29.19 43.83 L 29.19 30.92 L 32.8 30.92 C 33.68 34.27 36.7 36.76 40.32 36.76 C 44.63 36.76 48.13 33.25 48.13 28.94 C 48.13 24.64 44.63 21.13 40.32 21.13 C 37.26 21.13 34.62 22.92 33.35 25.5 L 20.44 25.5 L 20.44 21.2 L 45.36 6.01 L 57.29 13.15 L 57.29 44.45 L 41.05 44.45 C 39.55 44.45 38.34 45.66 38.34 47.16 L 38.34 67.15 C 35.76 68.42 33.97 71.06 33.97 74.13 C 33.97 78.44 37.47 81.94 41.78 81.94 C 46.09 81.94 49.59 78.44 49.59 74.13 C 49.59 70.51 47.11 67.49 43.76 66.6 L 43.76 49.87 L 57.29 49.87 L 57.29 107.47 Z M 119.55 46.19 C 119.55 45.21 119.03 44.31 118.18 43.83 L 104.98 36.34 L 104.98 19.69 C 104.98 18.74 104.49 17.87 103.68 17.37 L 76.06 0.53 C 75.2 0.01 74.12 0 73.26 0.52 L 60 8.46 L 46.74 0.52 C 45.87 0 44.79 0.01 43.94 0.53 L 16.32 17.37 C 15.51 17.86 15.02 18.74 15.02 19.68 L 15.02 36.34 L 1.82 43.83 C 0.97 44.31 0.44 45.21 0.44 46.18 L 0.45 73.92 C 0.45 74.91 0.98 75.82 1.85 76.29 L 15.02 83.54 L 15.02 100.27 C 15.02 101.22 15.52 102.11 16.35 102.6 L 44.92 119.49 C 45.78 120 46.83 120 47.69 119.49 L 59.11 112.69 L 70.88 119.51 C 71.3 119.75 71.77 119.88 72.23 119.88 C 72.71 119.88 73.19 119.75 73.61 119.5 L 102.19 102.6 C 103.02 102.11 103.52 101.23 103.52 100.27 L 103.52 83.52 L 118.17 75.27 C 119.03 74.79 119.56 73.89 119.56 72.91 Z" fill="#067f68" stroke="none" pointer-events="all"/></g></svg>